<?xml version="1.0" standalone="no"?>
<!DOCTYPE svg PUBLIC "-//W3C//DTD SVG 20010904//EN"
 "http://www.w3.org/TR/2001/REC-SVG-20010904/DTD/svg10.dtd">
<svg version="1.0" xmlns="http://www.w3.org/2000/svg"
 width="500.000000pt" height="500.000000pt" viewBox="0 0 500.000000 500.000000"
 preserveAspectRatio="xMidYMid meet">

<g transform="translate(0.000000,500.000000) scale(0.100000,-0.100000)"
fill="#000000" stroke="none">
<path d="M2582 3953 c-5 -15 -90 -248 -187 -518 -203 -560 -195 -535 -172
-516 10 8 31 12 52 9 31 -3 35 -1 35 18 0 26 18 42 56 49 34 7 148 -44 228
-102 47 -33 50 -34 63 -17 19 26 16 55 -12 136 -22 64 -24 74 -10 87 13 13 23
11 85 -22 186 -97 280 -206 210 -244 -28 -16 -126 -11 -143 6 -8 8 12 11 66
11 105 0 111 15 35 85 -56 50 -238 155 -238 137 0 -5 7 -29 15 -52 22 -62 19
-132 -6 -164 -48 -62 -152 -78 -241 -38 -27 11 -48 19 -48 16 0 -4 243 -708
311 -902 16 -46 29 -100 29 -121 0 -52 -45 -137 -88 -166 l-37 -25 464 0 463
0 -48 33 c-88 58 -46 -51 -649 1692 -119 347 -219 631 -220 633 -2 2 -7 -10
-13 -25z m206 -1170 c3 -10 -16 -13 -72 -13 -56 0 -76 -3 -76 -13 0 -32 91
-87 145 -87 33 0 32 -18 -1 -26 -24 -6 -21 -9 36 -31 35 -13 66 -26 69 -28 13
-14 -23 -27 -75 -27 l-58 -1 37 -29 c46 -37 47 -56 5 -60 -45 -4 -47 -30 -6
-59 25 -18 50 -25 110 -29 83 -5 110 -23 43 -28 l-40 -4 45 -21 c45 -22 45
-22 42 -68 l-3 -46 37 -6 c44 -7 74 -32 74 -62 0 -13 7 -26 16 -29 31 -12 1
-26 -57 -26 -34 0 -59 -4 -59 -10 0 -6 31 -25 70 -43 74 -34 83 -50 31 -55
l-32 -3 42 -38 c50 -44 48 -67 -5 -77 -20 -3 -33 -11 -30 -16 10 -16 87 -48
117 -48 15 0 27 -5 27 -11 0 -27 -153 28 -165 59 -8 22 14 42 46 42 40 0 36
13 -13 51 -24 18 -45 35 -48 37 -3 2 4 11 15 19 11 8 16 17 10 19 -39 16 -90
52 -90 64 0 8 17 18 43 25 42 10 48 25 11 25 -32 0 -99 32 -99 46 0 8 9 18 21
22 16 6 22 18 25 55 l3 46 -55 20 c-30 12 -59 21 -64 21 -5 0 -14 9 -20 20 -6
11 -16 20 -22 20 -6 0 -26 12 -45 26 -26 20 -33 32 -31 52 2 22 9 28 36 30 40
4 41 16 2 32 -75 31 -60 66 27 63 31 -2 54 -1 51 2 -3 3 -36 15 -74 28 -45 14
-69 27 -69 37 0 8 -9 21 -20 29 -68 48 -89 83 -63 109 17 17 150 12 156 -5z
m52 -9 c0 -16 -16 -19 -25 -4 -8 13 4 32 16 25 5 -4 9 -13 9 -21z"/>
<path d="M2970 2166 c35 -19 110 -31 110 -17 0 18 -37 31 -87 31 -46 -1 -47
-1 -23 -14z"/>
<path d="M3080 2110 c0 -5 5 -10 11 -10 5 0 7 5 4 10 -3 6 -8 10 -11 10 -2 0
-4 -4 -4 -10z"/>
<path d="M2342 2958 c-17 -17 -15 -32 10 -63 48 -61 210 -100 262 -62 17 12
13 17 -48 55 -111 71 -197 97 -224 70z"/>
<path d="M2042 2670 c-15 -105 -50 -179 -100 -213 -39 -27 -120 -51 -212 -63
l-55 -8 87 -12 c195 -29 250 -83 283 -280 7 -43 13 -69 14 -56 3 57 35 181 57
219 13 23 37 51 53 63 33 23 164 60 220 61 l36 1 -30 7 c-16 5 -59 14 -95 20
-147 28 -197 84 -229 254 l-16 91 -13 -84z"/>
<path d="M1854 1958 c-31 -63 -134 -187 -191 -229 -73 -55 -96 -68 -154 -89
l-54 -19 360 0 c288 1 353 3 325 13 -139 46 -239 167 -258 312 l-7 56 -21 -44z"/>
</g>
</svg>
